PathFileType	4	(X/Y/Z)	C:\Users\WrightLab\Desktop\Jo\P1_boxCal32.trc
DataRate	CameraRate	NumFrames	NumMarkers	Units	OrigDataRate	OrigDataStartFrame	OrigNumFrames
100.00	100.00	       51	19	mm	100.00	1	       737
Frame#	Time	Headset_Front			Headset_Back			Headset_Left			Headset_Right			Left_Shoulder			Right_Shoulder			Sternum			C7			Left Elbow			Right Elbow			Left Wrist			Right Wrist			Left ASIS			Right ASIS			S2			Left Knee			Right Knee			Left Ankle			Right Ankle			
		X1	Y1	Z1	X2	Y2	Z2	X3	Y3	Z3	X4	Y4	Z4	X5	Y5	Z5	X6	Y6	Z6	X7	Y7	Z7	X8	Y8	Z8	X9	Y9	Z9	X10	Y10	Z10	X11	Y11	Z11	X12	Y12	Z12	X13	Y13	Z13	X14	Y14	Z14	X15	Y15	Z15	X16	Y16	Z16	X17	Y17	Z17	X18	Y18	Z18	X19	Y19	Z19	

1	0.000																																																	-362.05881	539.49554	2250.72461							
2	0.010																																																	-367.88669	539.95825	2245.78442							
3	0.020																																																	-373.04544	539.24487	2240.60181							
4	0.030																																																	-378.32724	539.30579	2237.44775							
5	0.040																																																	-383.09171	539.42004	2234.09546							
6	0.050																																																	-387.89847	539.32471	2231.29980							
7	0.060																																																	-392.37250	539.27734	2227.93823							
8	0.070																																																	-396.47159	538.93970	2224.84399							
9	0.080																																																	-400.47131	539.09161	2220.55688							
10	0.090																																																	-406.13361	539.11627	2218.15503							
11	0.100																																																	-409.67395	538.25378	2213.03198							
12	0.110																																																	-412.86252	537.53070	2207.45020							
13	0.120																																																	-416.37903	537.62024	2202.74390							
14	0.130																																																	-419.00632	536.51373	2199.70459							
15	0.140																																																	-422.17206	535.43384	2198.29077							
16	0.150																																																	-424.93860	533.84662	2194.52124							
17	0.160																																																	-428.01828	534.16833	2189.25073							
18	0.170																																																	-430.86731	534.23749	2182.49634							
19	0.180																																																	-433.47925	532.55566	2176.97461							
20	0.190																																																	-436.57767	532.92657	2171.74902							
21	0.200																																																	-439.53641	532.95166	2165.16602							
22	0.210																																																	-442.41208	532.09344	2159.33862							
23	0.220																																																	-445.21515	531.46606	2154.42603							
24	0.230																																																	-447.98889	531.84241	2143.79053							
25	0.240																																																	-451.04819	532.57129	2134.72192							
26	0.250																																																	-454.07504	532.00525	2128.30225							
27	0.260																																																	-456.80811	530.01849	2123.01099							
28	0.270																																																	-459.96997	529.15045	2116.78540							
29	0.280																																																	-462.54132	527.69141	2109.47900							
30	0.290																																																	-465.46457	526.17896	2104.79199							
31	0.300																																																	-467.81763	525.95703	2091.61865							
32	0.310																																																	-470.52774	525.17267	2083.88135							
33	0.320																																																	-472.96320	523.41345	2076.46631							
34	0.330																																																	-475.52472	522.02911	2070.28540							
35	0.340																																																	-478.43893	520.05780	2064.56128							
36	0.350																																																	-481.27823	519.65363	2054.25854							
37	0.360																																																	-484.14880	518.39764	2044.66638							
38	0.370																																																	-486.96964	516.41254	2037.79578							
39	0.380																																																	-490.15405	513.96295	2031.38892							
40	0.390																																																	-493.56424	514.84265	2018.48376							
41	0.400																																																	-496.33069	511.59497	2012.22705							
42	0.410																																																	-499.60474	509.57434	2003.92664							
43	0.420																																																	-502.53036	507.54361	1994.34119							
44	0.430																																																	-505.57654	505.25366	1985.53699							
45	0.440																																																	-508.48969	502.13229	1980.61987							
46	0.450																																																	-510.91376	501.19376	1969.80640							
47	0.460																																																	-513.73474	500.46191	1960.53833							
48	0.470																																																	-516.25562	498.63159	1953.42163							
49	0.480																																																	-519.30341	498.29202	1947.27637							
50	0.490																																																	-521.85645	497.87817	1937.61414							
51	0.500																																																	-525.02997	499.67453	1928.42065							
